<svg xmlns="http://www.w3.org/2000/svg" width="262" height="122" viewBox="0 0 262 122">
  <g id="Group_10" data-name="Group 10" transform="translate(-416 -646)">
    <g id="Group_8" data-name="Group 8" transform="translate(-191 810) rotate(-90)" opacity="0.35">
      <g id="Ellipse_5" data-name="Ellipse 5" transform="translate(42 607)" fill="none" stroke="rgba(32,191,85,0.25)" stroke-width="3">
        <circle cx="5" cy="5" r="5" stroke="none"/>
        <circle cx="5" cy="5" r="3.5" fill="none"/>
      </g>
      <g id="Ellipse_17" data-name="Ellipse 17" transform="translate(98 607)" fill="none" stroke="rgba(32,191,85,0.15)" stroke-width="3">
        <circle cx="5" cy="5" r="5" stroke="none"/>
        <circle cx="5" cy="5" r="3.5" fill="none"/>
      </g>
      <g id="Ellipse_10" data-name="Ellipse 10" transform="translate(70 607)" fill="none" stroke="rgba(32,191,85,0.2)" stroke-width="3">
        <circle cx="5" cy="5" r="5" stroke="none"/>
        <circle cx="5" cy="5" r="3.5" fill="none"/>
      </g>
      <g id="Ellipse_15" data-name="Ellipse 15" transform="translate(126 607)" fill="none" stroke="rgba(32,191,85,0.1)" stroke-width="3">
        <circle cx="5" cy="5" r="5" stroke="none"/>
        <circle cx="5" cy="5" r="3.5" fill="none"/>
      </g>
      <g id="Ellipse_35" data-name="Ellipse 35" transform="translate(154 607)" fill="none" stroke="rgba(32,191,85,0.05)" stroke-width="3">
        <circle cx="5" cy="5" r="5" stroke="none"/>
        <circle cx="5" cy="5" r="3.5" fill="none"/>
      </g>
      <g id="Ellipse_36" data-name="Ellipse 36" transform="translate(154 607)" fill="none" stroke="rgba(32,191,85,0.05)" stroke-width="3">
        <circle cx="5" cy="5" r="5" stroke="none"/>
        <circle cx="5" cy="5" r="3.5" fill="none"/>
      </g>
      <g id="Ellipse_6" data-name="Ellipse 6" transform="translate(42 635)" fill="none" stroke="rgba(32,191,85,0.25)" stroke-width="3">
        <circle cx="5" cy="5" r="5" stroke="none"/>
        <circle cx="5" cy="5" r="3.5" fill="none"/>
      </g>
      <g id="Ellipse_18" data-name="Ellipse 18" transform="translate(98 635)" fill="none" stroke="rgba(32,191,85,0.15)" stroke-width="3">
        <circle cx="5" cy="5" r="5" stroke="none"/>
        <circle cx="5" cy="5" r="3.5" fill="none"/>
      </g>
      <g id="Ellipse_11" data-name="Ellipse 11" transform="translate(70 635)" fill="none" stroke="rgba(32,191,85,0.2)" stroke-width="3">
        <circle cx="5" cy="5" r="5" stroke="none"/>
        <circle cx="5" cy="5" r="3.5" fill="none"/>
      </g>
      <g id="Ellipse_16" data-name="Ellipse 16" transform="translate(126 635)" fill="none" stroke="rgba(32,191,85,0.1)" stroke-width="3">
        <circle cx="5" cy="5" r="5" stroke="none"/>
        <circle cx="5" cy="5" r="3.5" fill="none"/>
      </g>
      <g id="Ellipse_37" data-name="Ellipse 37" transform="translate(154 635)" fill="none" stroke="rgba(32,191,85,0.05)" stroke-width="3">
        <circle cx="5" cy="5" r="5" stroke="none"/>
        <circle cx="5" cy="5" r="3.5" fill="none"/>
      </g>
      <g id="Ellipse_38" data-name="Ellipse 38" transform="translate(154 635)" fill="none" stroke="rgba(32,191,85,0.05)" stroke-width="3">
        <circle cx="5" cy="5" r="5" stroke="none"/>
        <circle cx="5" cy="5" r="3.5" fill="none"/>
      </g>
      <g id="Ellipse_7" data-name="Ellipse 7" transform="translate(42 663)" fill="none" stroke="rgba(32,191,85,0.25)" stroke-width="3">
        <circle cx="5" cy="5" r="5" stroke="none"/>
        <circle cx="5" cy="5" r="3.5" fill="none"/>
      </g>
      <g id="Ellipse_19" data-name="Ellipse 19" transform="translate(98 663)" fill="none" stroke="rgba(32,191,85,0.15)" stroke-width="3">
        <circle cx="5" cy="5" r="5" stroke="none"/>
        <circle cx="5" cy="5" r="3.5" fill="none"/>
      </g>
      <g id="Ellipse_12" data-name="Ellipse 12" transform="translate(70 663)" fill="none" stroke="rgba(32,191,85,0.2)" stroke-width="3">
        <circle cx="5" cy="5" r="5" stroke="none"/>
        <circle cx="5" cy="5" r="3.5" fill="none"/>
      </g>
      <g id="Ellipse_20" data-name="Ellipse 20" transform="translate(126 663)" fill="none" stroke="rgba(32,191,85,0.1)" stroke-width="3">
        <circle cx="5" cy="5" r="5" stroke="none"/>
        <circle cx="5" cy="5" r="3.5" fill="none"/>
      </g>
      <g id="Ellipse_39" data-name="Ellipse 39" transform="translate(154 663)" fill="none" stroke="rgba(32,191,85,0.05)" stroke-width="3">
        <circle cx="5" cy="5" r="5" stroke="none"/>
        <circle cx="5" cy="5" r="3.5" fill="none"/>
      </g>
      <g id="Ellipse_30" data-name="Ellipse 30" transform="translate(126 663)" fill="none" stroke="rgba(32,191,85,0.1)" stroke-width="3">
        <circle cx="5" cy="5" r="5" stroke="none"/>
        <circle cx="5" cy="5" r="3.5" fill="none"/>
      </g>
      <g id="Ellipse_40" data-name="Ellipse 40" transform="translate(154 663)" fill="none" stroke="rgba(32,191,85,0.05)" stroke-width="3">
        <circle cx="5" cy="5" r="5" stroke="none"/>
        <circle cx="5" cy="5" r="3.5" fill="none"/>
      </g>
      <g id="Ellipse_8" data-name="Ellipse 8" transform="translate(42 691)" fill="none" stroke="rgba(32,191,85,0.25)" stroke-width="3">
        <circle cx="5" cy="5" r="5" stroke="none"/>
        <circle cx="5" cy="5" r="3.5" fill="none"/>
      </g>
      <g id="Ellipse_21" data-name="Ellipse 21" transform="translate(98 691)" fill="none" stroke="rgba(32,191,85,0.15)" stroke-width="3">
        <circle cx="5" cy="5" r="5" stroke="none"/>
        <circle cx="5" cy="5" r="3.5" fill="none"/>
      </g>
      <g id="Ellipse_13" data-name="Ellipse 13" transform="translate(70 691)" fill="none" stroke="rgba(32,191,85,0.2)" stroke-width="3">
        <circle cx="5" cy="5" r="5" stroke="none"/>
        <circle cx="5" cy="5" r="3.5" fill="none"/>
      </g>
      <g id="Ellipse_22" data-name="Ellipse 22" transform="translate(126 691)" fill="none" stroke="rgba(32,191,85,0.1)" stroke-width="3">
        <circle cx="5" cy="5" r="5" stroke="none"/>
        <circle cx="5" cy="5" r="3.5" fill="none"/>
      </g>
      <g id="Ellipse_41" data-name="Ellipse 41" transform="translate(154 691)" fill="none" stroke="rgba(32,191,85,0.05)" stroke-width="3">
        <circle cx="5" cy="5" r="5" stroke="none"/>
        <circle cx="5" cy="5" r="3.5" fill="none"/>
      </g>
      <g id="Ellipse_42" data-name="Ellipse 42" transform="translate(154 691)" fill="none" stroke="rgba(32,191,85,0.05)" stroke-width="3">
        <circle cx="5" cy="5" r="5" stroke="none"/>
        <circle cx="5" cy="5" r="3.5" fill="none"/>
      </g>
      <g id="Ellipse_9" data-name="Ellipse 9" transform="translate(42 719)" fill="none" stroke="rgba(32,191,85,0.25)" stroke-width="3">
        <circle cx="5" cy="5" r="5" stroke="none"/>
        <circle cx="5" cy="5" r="3.5" fill="none"/>
      </g>
      <g id="Ellipse_23" data-name="Ellipse 23" transform="translate(98 719)" fill="none" stroke="rgba(32,191,85,0.15)" stroke-width="3">
        <circle cx="5" cy="5" r="5" stroke="none"/>
        <circle cx="5" cy="5" r="3.5" fill="none"/>
      </g>
      <g id="Ellipse_14" data-name="Ellipse 14" transform="translate(70 719)" fill="none" stroke="rgba(32,191,85,0.2)" stroke-width="3">
        <circle cx="5" cy="5" r="5" stroke="none"/>
        <circle cx="5" cy="5" r="3.5" fill="none"/>
      </g>
      <g id="Ellipse_24" data-name="Ellipse 24" transform="translate(126 719)" fill="none" stroke="rgba(32,191,85,0.1)" stroke-width="3">
        <circle cx="5" cy="5" r="5" stroke="none"/>
        <circle cx="5" cy="5" r="3.5" fill="none"/>
      </g>
      <g id="Ellipse_43" data-name="Ellipse 43" transform="translate(154 719)" fill="none" stroke="rgba(32,191,85,0.05)" stroke-width="3">
        <circle cx="5" cy="5" r="5" stroke="none"/>
        <circle cx="5" cy="5" r="3.5" fill="none"/>
      </g>
      <g id="Ellipse_44" data-name="Ellipse 44" transform="translate(154 719)" fill="none" stroke="rgba(32,191,85,0.05)" stroke-width="3">
        <circle cx="5" cy="5" r="5" stroke="none"/>
        <circle cx="5" cy="5" r="3.5" fill="none"/>
      </g>
    </g>
    <g id="Group_9" data-name="Group 9" transform="translate(-51 810) rotate(-90)">
      <g id="Ellipse_5-2" data-name="Ellipse 5" transform="translate(42 607)" fill="none" stroke="rgba(32,191,85,0.25)" stroke-width="3">
        <circle cx="5" cy="5" r="5" stroke="none"/>
        <circle cx="5" cy="5" r="3.5" fill="none"/>
      </g>
      <g id="Ellipse_17-2" data-name="Ellipse 17" transform="translate(98 607)" fill="none" stroke="rgba(32,191,85,0.15)" stroke-width="3">
        <circle cx="5" cy="5" r="5" stroke="none"/>
        <circle cx="5" cy="5" r="3.5" fill="none"/>
      </g>
      <g id="Ellipse_10-2" data-name="Ellipse 10" transform="translate(70 607)" fill="none" stroke="rgba(32,191,85,0.2)" stroke-width="3">
        <circle cx="5" cy="5" r="5" stroke="none"/>
        <circle cx="5" cy="5" r="3.5" fill="none"/>
      </g>
      <g id="Ellipse_15-2" data-name="Ellipse 15" transform="translate(126 607)" fill="none" stroke="rgba(32,191,85,0.1)" stroke-width="3">
        <circle cx="5" cy="5" r="5" stroke="none"/>
        <circle cx="5" cy="5" r="3.5" fill="none"/>
      </g>
      <g id="Ellipse_35-2" data-name="Ellipse 35" transform="translate(154 607)" fill="none" stroke="rgba(32,191,85,0.05)" stroke-width="3">
        <circle cx="5" cy="5" r="5" stroke="none"/>
        <circle cx="5" cy="5" r="3.5" fill="none"/>
      </g>
      <g id="Ellipse_36-2" data-name="Ellipse 36" transform="translate(154 607)" fill="none" stroke="rgba(32,191,85,0.05)" stroke-width="3">
        <circle cx="5" cy="5" r="5" stroke="none"/>
        <circle cx="5" cy="5" r="3.5" fill="none"/>
      </g>
      <g id="Ellipse_6-2" data-name="Ellipse 6" transform="translate(42 635)" fill="none" stroke="rgba(32,191,85,0.25)" stroke-width="3">
        <circle cx="5" cy="5" r="5" stroke="none"/>
        <circle cx="5" cy="5" r="3.5" fill="none"/>
      </g>
      <g id="Ellipse_18-2" data-name="Ellipse 18" transform="translate(98 635)" fill="none" stroke="rgba(32,191,85,0.15)" stroke-width="3">
        <circle cx="5" cy="5" r="5" stroke="none"/>
        <circle cx="5" cy="5" r="3.5" fill="none"/>
      </g>
      <g id="Ellipse_11-2" data-name="Ellipse 11" transform="translate(70 635)" fill="none" stroke="rgba(32,191,85,0.2)" stroke-width="3">
        <circle cx="5" cy="5" r="5" stroke="none"/>
        <circle cx="5" cy="5" r="3.5" fill="none"/>
      </g>
      <g id="Ellipse_16-2" data-name="Ellipse 16" transform="translate(126 635)" fill="none" stroke="rgba(32,191,85,0.1)" stroke-width="3">
        <circle cx="5" cy="5" r="5" stroke="none"/>
        <circle cx="5" cy="5" r="3.5" fill="none"/>
      </g>
      <g id="Ellipse_37-2" data-name="Ellipse 37" transform="translate(154 635)" fill="none" stroke="rgba(32,191,85,0.05)" stroke-width="3">
        <circle cx="5" cy="5" r="5" stroke="none"/>
        <circle cx="5" cy="5" r="3.5" fill="none"/>
      </g>
      <g id="Ellipse_38-2" data-name="Ellipse 38" transform="translate(154 635)" fill="none" stroke="rgba(32,191,85,0.05)" stroke-width="3">
        <circle cx="5" cy="5" r="5" stroke="none"/>
        <circle cx="5" cy="5" r="3.5" fill="none"/>
      </g>
      <g id="Ellipse_7-2" data-name="Ellipse 7" transform="translate(42 663)" fill="none" stroke="rgba(32,191,85,0.25)" stroke-width="3">
        <circle cx="5" cy="5" r="5" stroke="none"/>
        <circle cx="5" cy="5" r="3.5" fill="none"/>
      </g>
      <g id="Ellipse_19-2" data-name="Ellipse 19" transform="translate(98 663)" fill="none" stroke="rgba(32,191,85,0.15)" stroke-width="3">
        <circle cx="5" cy="5" r="5" stroke="none"/>
        <circle cx="5" cy="5" r="3.5" fill="none"/>
      </g>
      <g id="Ellipse_12-2" data-name="Ellipse 12" transform="translate(70 663)" fill="none" stroke="rgba(32,191,85,0.2)" stroke-width="3">
        <circle cx="5" cy="5" r="5" stroke="none"/>
        <circle cx="5" cy="5" r="3.5" fill="none"/>
      </g>
      <g id="Ellipse_20-2" data-name="Ellipse 20" transform="translate(126 663)" fill="none" stroke="rgba(32,191,85,0.1)" stroke-width="3">
        <circle cx="5" cy="5" r="5" stroke="none"/>
        <circle cx="5" cy="5" r="3.5" fill="none"/>
      </g>
      <g id="Ellipse_39-2" data-name="Ellipse 39" transform="translate(154 663)" fill="none" stroke="rgba(32,191,85,0.05)" stroke-width="3">
        <circle cx="5" cy="5" r="5" stroke="none"/>
        <circle cx="5" cy="5" r="3.5" fill="none"/>
      </g>
      <g id="Ellipse_30-2" data-name="Ellipse 30" transform="translate(126 663)" fill="none" stroke="rgba(32,191,85,0.1)" stroke-width="3">
        <circle cx="5" cy="5" r="5" stroke="none"/>
        <circle cx="5" cy="5" r="3.5" fill="none"/>
      </g>
      <g id="Ellipse_40-2" data-name="Ellipse 40" transform="translate(154 663)" fill="none" stroke="rgba(32,191,85,0.05)" stroke-width="3">
        <circle cx="5" cy="5" r="5" stroke="none"/>
        <circle cx="5" cy="5" r="3.5" fill="none"/>
      </g>
      <g id="Ellipse_8-2" data-name="Ellipse 8" transform="translate(42 691)" fill="none" stroke="rgba(32,191,85,0.25)" stroke-width="3">
        <circle cx="5" cy="5" r="5" stroke="none"/>
        <circle cx="5" cy="5" r="3.5" fill="none"/>
      </g>
      <g id="Ellipse_21-2" data-name="Ellipse 21" transform="translate(98 691)" fill="none" stroke="rgba(32,191,85,0.15)" stroke-width="3">
        <circle cx="5" cy="5" r="5" stroke="none"/>
        <circle cx="5" cy="5" r="3.5" fill="none"/>
      </g>
      <g id="Ellipse_13-2" data-name="Ellipse 13" transform="translate(70 691)" fill="none" stroke="rgba(32,191,85,0.2)" stroke-width="3">
        <circle cx="5" cy="5" r="5" stroke="none"/>
        <circle cx="5" cy="5" r="3.5" fill="none"/>
      </g>
      <g id="Ellipse_22-2" data-name="Ellipse 22" transform="translate(126 691)" fill="none" stroke="rgba(32,191,85,0.1)" stroke-width="3">
        <circle cx="5" cy="5" r="5" stroke="none"/>
        <circle cx="5" cy="5" r="3.5" fill="none"/>
      </g>
      <g id="Ellipse_41-2" data-name="Ellipse 41" transform="translate(154 691)" fill="none" stroke="rgba(32,191,85,0.05)" stroke-width="3">
        <circle cx="5" cy="5" r="5" stroke="none"/>
        <circle cx="5" cy="5" r="3.5" fill="none"/>
      </g>
      <g id="Ellipse_42-2" data-name="Ellipse 42" transform="translate(154 691)" fill="none" stroke="rgba(32,191,85,0.05)" stroke-width="3">
        <circle cx="5" cy="5" r="5" stroke="none"/>
        <circle cx="5" cy="5" r="3.5" fill="none"/>
      </g>
      <g id="Ellipse_9-2" data-name="Ellipse 9" transform="translate(42 719)" fill="none" stroke="rgba(32,191,85,0.25)" stroke-width="3">
        <circle cx="5" cy="5" r="5" stroke="none"/>
        <circle cx="5" cy="5" r="3.5" fill="none"/>
      </g>
      <g id="Ellipse_23-2" data-name="Ellipse 23" transform="translate(98 719)" fill="none" stroke="rgba(32,191,85,0.15)" stroke-width="3">
        <circle cx="5" cy="5" r="5" stroke="none"/>
        <circle cx="5" cy="5" r="3.5" fill="none"/>
      </g>
      <g id="Ellipse_14-2" data-name="Ellipse 14" transform="translate(70 719)" fill="none" stroke="rgba(32,191,85,0.2)" stroke-width="3">
        <circle cx="5" cy="5" r="5" stroke="none"/>
        <circle cx="5" cy="5" r="3.5" fill="none"/>
      </g>
      <g id="Ellipse_24-2" data-name="Ellipse 24" transform="translate(126 719)" fill="none" stroke="rgba(32,191,85,0.1)" stroke-width="3">
        <circle cx="5" cy="5" r="5" stroke="none"/>
        <circle cx="5" cy="5" r="3.5" fill="none"/>
      </g>
      <g id="Ellipse_43-2" data-name="Ellipse 43" transform="translate(154 719)" fill="none" stroke="rgba(32,191,85,0.05)" stroke-width="3">
        <circle cx="5" cy="5" r="5" stroke="none"/>
        <circle cx="5" cy="5" r="3.5" fill="none"/>
      </g>
      <g id="Ellipse_44-2" data-name="Ellipse 44" transform="translate(154 719)" fill="none" stroke="rgba(32,191,85,0.05)" stroke-width="3">
        <circle cx="5" cy="5" r="5" stroke="none"/>
        <circle cx="5" cy="5" r="3.5" fill="none"/>
      </g>
    </g>
  </g>
</svg>
